<svg width="20" height="17" xmlns="http://www.w3.org/2000/svg"><path d="M16.51 4.968c0 .142.02.305.02.448 0 1.14-.221 2.32-.642 3.46-.622 1.71-1.725 3.299-3.23 4.46-1.525 1.16-3.45 1.893-5.817 1.893a9.521 9.521 0 0 1-4.033-.896 7.148 7.148 0 0 0 4.053-1.588l.742-.59-.943-.02a3.142 3.142 0 0 1-2.768-1.752h.14c.361 0 .702-.04 1.023-.142l1.364-.367-1.404-.285A3.146 3.146 0 0 1 3.19 8.47a3.373 3.373 0 0 1-.702-1.567c.38.142.782.224 1.203.244l1.164.04-.963-.65a3.261 3.261 0 0 1-1.023-1.14 3.327 3.327 0 0 1-.381-1.548c0-.428.08-.814.22-1.18 1.786 2.015 4.313 3.318 7.162 3.46l.441.02-.1-.447a3.04 3.04 0 0 1-.08-.733c0-.896.36-1.71.942-2.28a3.14 3.14 0 0 1 4.574.061l.12.142.18-.04a7.37 7.37 0 0 0 1.606-.51c-.06.122-.1.245-.18.346-.061.082-.121.143-.181.204-.08.061-.181.143-.301.224l-1.344.814 1.544-.183c.181-.02.321-.04.442-.04.06 0 .12-.021.16-.021-.32.366-.682.692-1.063.977l-.14.102.02.204zM20 3.095c0-.265-.08-.53-.2-.754a1.24 1.24 0 0 0-.302-.346c.02-.102.04-.203.04-.326 0-.427-.18-.834-.521-1.12a1.41 1.41 0 0 0-1.605-.101 5.847 5.847 0 0 1-1.143.53A4.983 4.983 0 0 0 13.32 0c-1.284 0-2.447.509-3.33 1.323a5.018 5.018 0 0 0-1.525 2.85 8.566 8.566 0 0 1-4.734-2.992A1.402 1.402 0 0 0 2.648.65h-.1c-.462.041-.883.306-1.104.713-.481.753-.702 1.629-.702 2.504 0 .57.1 1.12.281 1.65-.18.223-.28.529-.3.834v.082c0 1.262.46 2.443 1.263 3.338-.04.082-.04.163-.04.245 0 .142.02.285.06.427.26.794.682 1.507 1.264 2.057a5.412 5.412 0 0 1-1.003.081c-.22 0-.462-.02-.682-.04h-.16c-.582 0-1.104.366-1.325.915l-.1-.02.08.061c-.06.143-.08.306-.08.468 0 .469.24.937.642 1.202A11.256 11.256 0 0 0 6.8 17c1.765 0 3.37-.366 4.774-.998 2.106-.956 3.771-2.524 4.895-4.377a12.039 12.039 0 0 0 1.745-5.985 8.06 8.06 0 0 0 1.484-1.71c.2-.245.301-.53.301-.835z" fill="#F3F2F4" fill-rule="evenodd"></path></svg>